<svg xmlns="http://www.w3.org/2000/svg" width="25" height="24" viewBox="0 0 25 24" fill="none">
  <g clip-path="url(#clip0_10662_659)">
    <path d="M16.5 22V18.13C16.5375 17.6532 16.4731 17.1738 16.311 16.7238C16.1489 16.2738 15.8929 15.8634 15.56 15.52C18.7 15.17 22 13.98 22 8.52C21.9997 7.12383 21.4627 5.7812 20.5 4.77C20.9559 3.54851 20.9236 2.19835 20.41 0.999999C20.41 0.999999 19.23 0.649999 16.5 2.48C14.208 1.85882 11.792 1.85882 9.5 2.48C6.77 0.649999 5.59 0.999999 5.59 0.999999C5.07638 2.19835 5.04414 3.54851 5.5 4.77C4.53013 5.7887 3.99252 7.14346 4 8.55C4 13.97 7.3 15.16 10.44 15.55C10.111 15.89 9.85726 16.2954 9.69531 16.7399C9.53335 17.1844 9.46681 17.6581 9.5 18.13V22M9.5 19C4.5 20.5 4.5 16.5 2.5 16L9.5 19Z" stroke="#837E9F" stroke-width="2" stroke-linecap="round" stroke-linejoin="round"/>
  </g>
  <defs>
    <clipPath id="clip0_10662_659">
      <rect width="24" height="24" fill="white" transform="translate(0.5)"/>
    </clipPath>
  </defs>
</svg>