<svg xmlns="http://www.w3.org/2000/svg" width="25" height="24" viewBox="0 0 25 24" fill="none">
  <g clip-path="url(#clip0_10662_675)">
    <path d="M23.5 3C22.5424 3.67548 21.4821 4.19211 20.36 4.53C19.7577 3.83751 18.9573 3.34669 18.067 3.12393C17.1767 2.90116 16.2395 2.9572 15.3821 3.28445C14.5247 3.61171 13.7884 4.1944 13.273 4.95372C12.7575 5.71303 12.4877 6.61234 12.5 7.53V8.53C10.7426 8.57557 9.00127 8.18581 7.43101 7.39545C5.86074 6.60508 4.51032 5.43864 3.5 4C3.5 4 -0.5 13 8.5 17C6.44053 18.398 3.98716 19.0989 1.5 19C10.5 24 21.5 19 21.5 7.5C21.4991 7.22145 21.4723 6.94359 21.42 6.67C22.4406 5.66349 23.1608 4.39271 23.5 3V3Z" stroke="#837E9F" stroke-width="2" stroke-linecap="round" stroke-linejoin="round"/>
  </g>
  <defs>
    <clipPath id="clip0_10662_675">
      <rect width="24" height="24" fill="white" transform="translate(0.5)"/>
    </clipPath>
  </defs>
</svg>